# xmcd
#
# Track frame offsets:
#	150
#	13761
#	26460
#	39260
#	52120
#	64724
#	73693
#	83687
#	95087
#	104567
#	117055
#	127679
#	138247
#	148110
#	156876
#	166094
#	179387
#	190149
#	201774
#	214622
#	223613
#	234462
#	245601
#	256965
#
# Disc length: 3572 seconds
#
# Revision: 0
# Processed by: cddbd v1.5.2PL0 Copyright (c) Steve Scherf et al.
# Submitted via: audiograbber 1.83.01
#
DISCID=510df218
DTITLE=—борник - 60s Pop - 147 Original Hits CD2
DYEAR=1900
DGENRE=
TTITLE0=Sly and Family Stone - Dance To The Music
TTITLE1=Lee Dorsey - Working In The Coalmine
TTITLE2=Bob and Earl - Harlem Shuffle
TTITLE3=Dobie Gray - The "In" Crowd
TTITLE4=The Archies - Sugar Sugar
TTITLE5=The Dixie Cups - Iko Iko
TTITLE6=The Beach Boys - Barbara Ann
TTITLE7=The Young Idea - With A Little Help From My Friend
TTITLE8=Billy J Kramer and The Dakotas - I'll Keep You Satisfied
TTITLE9=Manfred Man - Come Tomorrow
TTITLE10=The Animals - Baby Let Me Take You Home
TTITLE11=The Hollies - Here I Go Again
TTITLE12=Johnny Kid and The Pirates - Restless
TTITLE13=Bert Weedon - Big Beat Boogie
TTITLE14=The Shadows - Wonderful Land
TTITLE15=Jeff Beck - Love Is Blue
TTITLE16=Paul Jones - I've Been A Bad Bad Boy
TTITLE17=The Seekers - Someday, One Day
TTITLE18=The Classocs IV - Spooky
TTITLE19=Fredy and The Dreamers - If You Gotta Make A Fool  Of Somebody
TTITLE20=Gerry and The Peacemakers - Ferry Cross The Mercy
TTITLE21=Cilla Black - It's For You
TTITLE22=Graham Boney - Super Girl
TTITLE23=Peter and Gordon - Lady Godiva
EXTD=
EXTT0=
EXTT1=
EXTT2=
EXTT3=
EXTT4=
EXTT5=
EXTT6=
EXTT7=
EXTT8=
EXTT9=
EXTT10=
EXTT11=
EXTT12=
EXTT13=
EXTT14=
EXTT15=
EXTT16=
EXTT17=
EXTT18=
EXTT19=
EXTT20=
EXTT21=
EXTT22=
EXTT23=
PLAYORDER=
